<?xml version="1.0" standalone="no"?>
<!DOCTYPE svg PUBLIC "-//W3C//DTD SVG 20010904//EN"
 "http://www.w3.org/TR/2001/REC-SVG-20010904/DTD/svg10.dtd">
<svg version="1.0" xmlns="http://www.w3.org/2000/svg"
 width="16.000000pt" height="16.000000pt" viewBox="0 0 16.000000 16.000000"
 preserveAspectRatio="xMidYMid meet">

<g transform="translate(0.000000,16.000000) scale(0.100000,-0.100000)"
fill="#000000" stroke="none">
<path d="M40 88 c0 -4 6 -9 13 -9 6 -1 24 -3 40 -5 15 -1 27 1 27 7 0 5 -8 9
-17 10 -10 0 -28 2 -40 3 -13 2 -23 -1 -23 -6z"/>
<path d="M50 51 c0 -5 6 -12 13 -15 6 -3 0 -4 -15 -2 -15 1 -25 0 -23 -4 2 -4
29 -7 59 -7 31 0 53 4 50 8 -2 4 -12 5 -21 2 -12 -5 -15 -2 -10 10 5 14 0 17
-23 17 -17 0 -30 -4 -30 -9z"/>
</g>
</svg>
